<svg width="30" height="43" viewBox="0 0 30 43" fill="none" xmlns="http://www.w3.org/2000/svg">
<g filter="url(#filter0_d_305_247)">
<path d="M26 10.92C26 17.359 21 18.359 21 24.36C21 27.458 17.877 27.719 15.5 27.719C13.447 27.719 8.914 26.94 8.914 24.358C8.914 18.36 4 17.36 4 10.92C4 4.889 9.285 0 15.083 0C20.883 0 26 4.889 26 10.92Z" fill="#FFD983"/>
<path d="M19.167 32.36C19.167 33.188 16.933 34.86 15 34.86C13.067 34.86 10.833 33.188 10.833 32.36C10.833 31.532 13.066 31.86 15 31.86C16.933 31.86 19.167 31.532 19.167 32.36Z" fill="#CCD6DD"/>
<path d="M19.707 10.153C19.316 9.76199 18.684 9.76199 18.293 10.153L15 13.446L11.707 10.153C11.316 9.76199 10.684 9.76199 10.293 10.153C9.90201 10.544 9.90201 11.176 10.293 11.567L14 15.274V25.86C14 26.413 14.448 26.86 15 26.86C15.552 26.86 16 26.413 16 25.86V15.274L19.707 11.567C20.098 11.176 20.098 10.544 19.707 10.153V10.153Z" fill="#FFCC4D"/>
<path d="M21 30.86C21 31.964 20.104 32.86 19 32.86H11C9.896 32.86 9 31.964 9 30.86V24.86H21V30.86Z" fill="#99AAB5"/>
<path d="M8.99894 31.86C8.51894 31.86 8.09494 31.513 8.01394 31.024C7.92294 30.48 8.29094 29.964 8.83594 29.874L20.8359 27.874C21.3799 27.776 21.8959 28.151 21.9859 28.696C22.0769 29.24 21.7089 29.756 21.1639 29.846L9.16394 31.846C9.10894 31.856 9.05294 31.86 8.99894 31.86V31.86ZM8.99894 27.86C8.51894 27.86 8.09494 27.513 8.01394 27.024C7.92294 26.48 8.29094 25.964 8.83594 25.874L20.8359 23.874C21.3799 23.777 21.8959 24.151 21.9859 24.696C22.0769 25.24 21.7089 25.756 21.1639 25.846L9.16394 27.846C9.10894 27.856 9.05294 27.86 8.99894 27.86V27.86Z" fill="#CCD6DD"/>
</g>
<defs>
<filter id="filter0_d_305_247" x="0" y="0" width="30" height="42.86" filterUnits="userSpaceOnUse" color-interpolation-filters="sRGB">
<feFlood flood-opacity="0" result="BackgroundImageFix"/>
<feColorMatrix in="SourceAlpha" type="matrix" values="0 0 0 0 0 0 0 0 0 0 0 0 0 0 0 0 0 0 127 0" result="hardAlpha"/>
<feOffset dy="4"/>
<feGaussianBlur stdDeviation="2"/>
<feComposite in2="hardAlpha" operator="out"/>
<feColorMatrix type="matrix" values="0 0 0 0 0 0 0 0 0 0 0 0 0 0 0 0 0 0 0.25 0"/>
<feBlend mode="normal" in2="BackgroundImageFix" result="effect1_dropShadow_305_247"/>
<feBlend mode="normal" in="SourceGraphic" in2="effect1_dropShadow_305_247" result="shape"/>
</filter>
</defs>
</svg>
